<?xml version="1.0" standalone="no"?><!DOCTYPE svg PUBLIC "-//W3C//DTD SVG 1.1//EN" "http://www.w3.org/Graphics/SVG/1.1/DTD/svg11.dtd"><svg t="1592043750490" class="icon" viewBox="0 0 1024 1024" version="1.1" xmlns="http://www.w3.org/2000/svg" p-id="731" xmlns:xlink="http://www.w3.org/1999/xlink" width="200" height="200"><defs><style type="text/css"></style></defs><path d="M512.14981 511.350824m-511.350824 0a511.350824 511.350824 0 1 0 1022.701648 0 511.350824 511.350824 0 1 0-1022.701648 0Z" fill="#1EF4CB" p-id="732"></path><path d="M733.269092 212.230567H201.344387v494.572125l144.616405 144.616405h387.3083z" fill="#FFFFFF" p-id="733"></path><path d="M345.960792 706.802692H201.344387l144.616405 144.616405z" fill="#E6E9EE" p-id="734"></path><path d="M259.67034 252.17985h199.54667v13.283136H259.67034z" fill="#F1543F" p-id="735"></path><path d="M259.67034 293.427485h157.899542v13.283136H259.67034zM250.382132 488.979226h433.949088v13.283136H250.382132zM250.382132 540.314054h433.949088V553.597191H250.382132zM250.382132 591.648883h433.949088v13.283137H250.382132zM250.382132 642.983712h270.656393v13.283137h-270.656393zM506.756657 705.604213h177.574563v13.283137H506.756657zM259.67034 334.774993h75.903638v13.283136h-75.903638z" fill="#CED5E0" p-id="736"></path><path d="M397.295621 403.887253h-36.453721v7.19087h14.181995v39.749537h7.989857v-39.749537h14.281869zM416.371403 403.887253l-20.673754 47.04028h8.489223l4.694041-10.686433H432.45099l4.694041 10.686433h8.489222l-20.673754-47.04028h-8.589096z m-4.294547 28.96323l8.589095-19.375403 8.489223 19.375403h-17.078318zM488.679606 403.887253h-9.887448L468.305472 419.767093h-0.29962l-10.486687-15.87984h-9.787574l14.980981 22.870964-16.17946 24.069443h9.887448l11.585292-17.677558h0.29962l11.585292 17.677558h9.887447L473.698625 426.758217zM505.258558 430.853019h22.471472V423.762021h-22.471472v-12.484151H530.326734v-7.390617h-32.958159v46.940407h33.757144v-7.49049h-25.867161zM570.176144 428.256315c-2.396957-2.097337-6.092266-3.695309-10.88618-4.893787-4.793914-1.198478-7.989857-2.297084-9.487955-3.295816s-2.197211-2.49683-2.19721-4.394421c0-1.897591 0.699112-3.295816 2.19721-4.294548 1.498098-0.898859 3.395689-1.398225 5.692773-1.398225 2.297084 0 4.694041 0.399493 6.991125 1.198479 2.396957 0.798986 4.294548 1.797718 5.692772 3.096069l4.194675-5.992392c-2.197211-1.797718-4.694041-3.195943-7.690237-4.194675s-5.892519-1.498098-8.988589-1.498098c-4.694041 0-8.589096 1.198478-11.685165 3.495562-3.195943 2.396957-4.694041 5.692773-4.694041 10.087194s1.398225 7.590364 4.194675 9.687701c1.398225 1.098605 2.996196 1.997464 4.793914 2.696577 1.797718 0.699112 4.394421 1.498098 7.889983 2.297084 3.495562 0.798986 5.892519 1.697845 7.290745 2.796449 1.398225 0.998732 2.097337 2.396957 2.097337 4.194675 0 1.797718-0.798986 3.295816-2.297084 4.394421-1.498098 1.098605-3.495562 1.597971-6.092265 1.597972-5.093534 0-10.087194-2.097337-14.781235-6.192139l-4.993661 5.992392c5.692773 5.093534 12.184531 7.590364 19.575149 7.590364 4.99366 0 9.088462-1.298352 12.184531-3.795182 3.096069-2.596703 4.594168-5.892519 4.594168-9.987321 0.099873-3.994928-1.098605-7.090998-3.595435-9.188335z" fill="#F1543F" p-id="737"></path><path d="M786.701258 435.447186l-27.964498-27.964498-265.163367 265.163367 27.964498 27.964498 27.964499 27.964498 265.163366-265.163367z" fill="#FF7058" p-id="738"></path><path d="M834.740271 387.408173c-15.380474-15.380474-40.548522-15.380474-56.128743 0.199747l-19.874768 19.874768 55.928996 55.928996 19.874769-19.874768c15.58022-15.480347 15.680094-40.748269 0.199746-56.128743z" fill="#324A5E" p-id="739"></path><path d="M737.057283 429.255047l25.423724-25.423723 55.930993 55.930993-25.422725 25.423724z" fill="#FFFFFF" p-id="740"></path><path d="M467.306739 754.841705l23.470204-7.490491-15.979713-15.979713z" fill="#324A5E" p-id="741"></path><path d="M521.537891 700.610553l-27.964498-27.964498-18.776163 58.725446 7.989857 7.989857 7.989856 7.989856 58.725447-18.776163z" fill="#FFFFFF" p-id="742"></path></svg>